<?xml version="1.0" encoding="UTF-8" standalone="no"?>
<svg
   width="495.16235"
   height="672.88104"
   viewBox="0 0 495.16251 672.87977"
   version="1.1"
   id="svg108"
   sodipodi:docname="potato_v2.svg"
   xml:space="preserve"
   inkscape:version="1.4.2 (ebf0e940, 2025-05-08)"
   xmlns:inkscape="http://www.inkscape.org/namespaces/inkscape"
   xmlns:sodipodi="http://sodipodi.sourceforge.net/DTD/sodipodi-0.dtd"
   xmlns="http://www.w3.org/2000/svg"
   xmlns:svg="http://www.w3.org/2000/svg"><sodipodi:namedview
     id="namedview108"
     pagecolor="#ffffff"
     bordercolor="#999999"
     borderopacity="1"
     inkscape:showpageshadow="2"
     inkscape:pageopacity="0"
     inkscape:pagecheckerboard="0"
     inkscape:deskcolor="#d1d1d1"
     inkscape:zoom="1.0464152"
     inkscape:cx="234.6105"
     inkscape:cy="331.13051"
     inkscape:window-width="1064"
     inkscape:window-height="1036"
     inkscape:window-x="659"
     inkscape:window-y="38"
     inkscape:window-maximized="0"
     inkscape:current-layer="svg108"
     inkscape:clip-to-page="false"
     inkscape:export-bgcolor="#ffffff00"><inkscape:page
       x="0"
       y="0"
       width="495.16251"
       height="672.87976"
       id="page2"
       margin="0"
       bleed="0" /></sodipodi:namedview><defs
     id="defs2"><linearGradient
       id="gradient_0"
       gradientUnits="userSpaceOnUse"
       x1="112.8234"
       y1="426.52087"
       x2="602.10223"
       y2="623.36365"
       gradientTransform="translate(-87.718009,-181.11702)"><stop
         offset="0"
         stop-color="#A9131C"
         id="stop1" /><stop
         offset="1"
         stop-color="#F21C22"
         id="stop2" /></linearGradient></defs><path
     fill="url(#gradient_0)"
     d="m 277.90399,0.10298067 c 7.066,-0.21 14.138,-0.101 21.194,0.326 44.395,2.59299993 87.252,18.02700033 116.806,52.26400033 35.109,40.672 52.09022,105.219069 42.30122,158.005069 -4.556,24.565 -13.04784,39.59193 -8.13384,65.21193 3.704,19.316 12.13362,35.497 20.12362,52.98 7.893,17.268 13.741,34.873 17.384,53.446 1.651,8.051 4.163,16.024 5.297,24.177 8.59,61.768 -7.294,132.499 -43.085,183.886 -10.634,14.015 -24.431,26.878 -37.345,38.628 -12.24684,9.55922 -30.86132,21.01557 -45.41409,28.29941 -40.43457,16.29212 -115.28456,17.08364 -159.45056,14.34064 -54.364,-5.442 -94.13813,-14.74692 -135.053129,-52.30292 -22.092,-20.278 -49.34719,-59.30128 -59.70479,-87.29828 -19.1433978,-53.076 -16.9273138,-113.50305 7.14669,-165.00505 13.125,-28.079 30.93163,-45.16905 39.16863,-74.93505 2.607,-15.188 -2.60625,-36.703 -4.31325,-51.676 -2.875,-25.217 -1.0415,-48.56375 4.4735,-73.42275 8.201,-36.971 24.734,-70.442999 50.117999,-98.654999 42.262,-46.972 107.085,-65.6810004 168.487,-68.26900033 z"
     id="path2"
     sodipodi:nodetypes="cccccccccccccccccccc"
     style="fill:url(#gradient_0)" /><path
     fill="#e59e42"
     d="m 253.13699,8.8829805 c 23.242,-3.1869999 55.65078,-2.0643099 78.96478,2.2406905 7.767,6.819 16.39622,12.24531 24.19722,18.69331 34.958,28.895 1.431,18.077 -19.521,24.022 -5.818,1.651 -7.961,5.265 -2.741,9.907 l 1.374,0.872 c 18.445,10.11 45.988,14.591 54.901,33.714 -2.344,3.188999 -8.073,8.105999 -7.311,11.953999 1.225,6.187 13.831,11.492 19.012,13.376 18.058,6.564 24.896,12.127 33.463,29.29 2.54,3.573 4.55,6.244 7.365,9.603 3.631,3.14 6.9,5.725 10.93,8.369 0.117,12.022 -0.005,25.948 -2.537,37.727 -6.351,29.553 -13.517,44.547 -6.726,75.068 3.346,7.758 13.092,29.915 14.468,37.798 5.534,14.942 12.11,28.95 17.511,44.19 -3.488,7.098 -5.555,11.406 -6.804,19.374 -0.609,8.036 -0.248,18.838 -8.929,22.129 -10.318,-0.996 -11.192,-7.396 -12.856,-16.337 -4.553,15.96 -5.978,41.311 14.437,46.325 l 4.995,0.878 c 1.159,10.06 2.811,18.76 9.165,27.155 3.345,3.512 5.483,5.419 9.71,7.847 -1.421,11.5 -2.6,23.756 -5.783,34.896 -5.376,18.812 -31.914,76.258 -46.012,87.394 -5.101,4.03 -15.322,7.368 -21.687,9.242 -6.491,2.523 -15.718,4.87 -22.613,5.824 -4.43,0.786 -6.896,1.055 -11.393,1.295 2.027,-7.751 7.976,-18.359 11.723,-25.621 4.37,-8.467 7.761,-15.517 11.219,-24.475 -4.38,5.077 -35.253,35.513 -40.039,31.445 -0.516,-4.978 8.958,-50.804 10.926,-57.587 -8.591,9.43 -16.096,20.583 -23.2,31.167 -5.624,8.377 -38.571,63.759 -42.276,65.303 -0.781,0.325 -0.992,0.06 -1.747,-0.199 -4.123,-4.219 -6.905,-17.546 -8.111,-23.506 -13.113,18.493 -19.107,36.463 -24.239,58.124 -8.892,0.132 -17.292,0.606 -26.346,0.525 -17.344,-0.203 -34.654,-1.614 -51.802,-4.225 -15.931,-15.219 -34.973,-48.417 -42.98,-69.288 -2.506,-6.532 -4.426,-14.048 -5.94,-20.87 -5.224,14.56 -6.305,18.942 -9.776,34.039 -12.527,-13.665 -16.929,-27.011 -23.359,-44.024 -4.467,11.386 -5.46,16.346 -6.137,28.57 -3.069,-3.532 -7.392001,-7.56 -10.731999,-11.158 -6.165,-6.716 -11.88,-13.832 -17.106,-21.303 -6.349,-9.143 -12.401,-18.532 -17.543,-28.41 -1.517,-2.914 -3.225,-6.206 -5.039,-8.916 l -0.296,-0.436 c -0.112,1.354 -0.286,2.931 -0.332,4.267 -0.16,-1.757 -0.243,-2.454 -0.694,-4.153 -1.051,-0.331 -20.049,0.566 -22.878,0.65 -3.872,0.107 -8.705,0.362 -12.498,0.275 -2.079,-5.54 -3.745,-11.227 -4.984,-17.014 -7.7856008,-28.573 -7.0338008,-74.832 1.762,-103.194 0.648,-2.409 1.592,-6.057 3.234,-7.882 1.416,-4.174 2.875,-7.972 4.491,-12.074 0.275,-1.518 1.429,-3.988 2.06,-5.494 4.828,-13.953 16.244,-29.714 23.567,-43.404 4.801,-8.697 7.877,-15.515 12.023,-24.458 0.649,-0.991 1.661,-3.213 2.229,-4.364 0.481,-5.311 3.359,-12.819 3.25,-19.136 -0.25,-14.461 -3.104,-29.163 -4.671,-43.578 -4.439,-39.168 2.289,-78.793 19.405,-114.301 C 110.25199,66.698981 150.73399,39.612981 211.65599,17.708981 c 3.091,-1.566 9.057,-4.054 12.545,-3.451 2.897,-0.872 5.318,-1.307 8.27,-1.863 1.142,-0.353 4.067,-0.889 5.361,-1.16 1.632,-0.481 6.386,-1.2540007 8.281,-1.6180005 z"
     id="path3"
     sodipodi:nodetypes="ccsccccccccccccccccccccccccccccccccccccsccccccsccccccccccccccccccccccc" /><path
     fill="#7a0d0e"
     d="m 109.98099,207.40098 c 17.952,-5.675 28.234,2.217 43.092,9.853 13.793,9.557 27.012,19.917 39.59,31.026 9.036,9.099 17.425,15.163 27.159,25.535 4.995,-9.93 8.194,-25.001 10.177,-35.843 0.898,16.99 -1.235,29.326 -7.348,45.138 -4.169,-3.499 -9.171,-7.483 -13.146,-11.092 -0.789,5.102 -1.494,9.848 -2.869,14.836 -14.011,50.848 -72.519,53.286 -83.517,-2.273 10.704,19.005 17.136,36.415 43.671,33.536 -20.517,-7.706 -30.464,-23.686 -35.244,-44.183 -1.424,-11.527 -2.853,-16.268 -1.814,-28.743 0.022,-7.642 2.817,-18.337 4.947,-25.621 -21.8,-9.496 -39.558999,6.604 -53.950999,21.051 5.15,-14.649 11.773,-23.023 25.006999,-31.241 z"
     id="path4" /><path
     fill="white"
     d="m 140.50799,222.55498 c 7.815,3.478 19.865,11.59 27.028,16.55 -3.879,10.42 -4.378,26.639 2.653,36.108 1.202,1.586 3.964,3.632 5.998,3.513 10.676,-0.627 9.931,-18.575 9.623,-25.336 4.664,3.121 13.256,10.645 17.846,14.489 -0.862,3.551 -1.776,7.091 -2.74,10.616 -3.34,9.754 -7.737,18.283 -16.632,24.105 -13.492,8.829 -30.304,1.811 -38.003,-11.278 -12.387,-21.06 -11.001,-45.859 -5.773,-68.767 z"
     id="path5"
     style="fill:#fcfbe8;fill-opacity:1" /><path
     fill="#cc7c39"
     d="m 462.33499,437.19798 4.995,0.878 c 1.159,10.06 2.811,18.76 9.165,27.155 3.345,3.512 5.483,5.419 9.71,7.847 -1.421,11.5 -2.6,23.756 -5.783,34.896 -5.376,18.812 -31.914,76.258 -46.012,87.394 -5.101,4.03 -15.322,7.368 -21.687,9.242 -6.491,2.523 -15.718,4.87 -22.613,5.824 2.819,-3.907 6.294,-7.684 9.135,-11.604 7.572,-10.446 15.646,-21.407 22.127,-32.527 l 0.315,-0.007 c 0.28,-1.564 18.302,-34.599 20.35,-35.76 l -0.304,-0.42 c 2.308,-3.789 5.335,-11.242 6.941,-15.43 10.067,-26.26 12.636,-49.858 13.661,-77.488 z"
     id="path6" /><path
     fill="#e59e42"
     d="m 476.49499,465.23098 c 3.345,3.512 5.483,5.419 9.71,7.847 -1.421,11.5 -3.28899,21.00003 -6.47199,35.58499 -5.376,18.812 -31.22501,75.56901 -45.32301,86.70501 -5.101,4.03 -15.322,7.368 -21.687,9.242 0.737,-1.759 9.596,-11.642 11.598,-14.134 4.087,-5.191 8.055,-10.474 11.902,-15.845 25.38,-35.426 32.822,-67.594 40.272,-109.4 z"
     id="path7"
     sodipodi:nodetypes="cccccccc" /><path
     fill="#c17036"
     d="m 421.68699,566.29598 c 0.28,-1.564 18.302,-34.599 20.35,-35.76 2.445,2.419 3.025,3.281 4.919,6.196 -2.104,13.244 -9.021,24.054 -18.135,33.622 z"
     id="path8" /><path
     fill="#cc7c39"
     d="m 23.926991,478.71698 c 0.645,-0.31 4.449,-2.45 4.862,-2.487 25.787,-2.289 53.086,10.807 66.139,33.483 0.963,1.674 1.038,3.144 0.452,4.935 -4.362,6.164 -25.296,4.693 -32.807,5.562 -1.909,0.221 -4.922,-0.056 -6.656,0.674 -0.112,1.354 -0.286,2.931 -0.332,4.267 -0.16,-1.757 -0.243,-2.454 -0.694,-4.153 -1.051,-0.331 -20.049,0.566 -22.878,0.65 -3.872,0.107 -8.705,0.362 -12.498,0.275 -2.079,-5.54 -3.745,-11.227 -4.984,-17.014 0.547,-1.509 0.747,-4.788 1.085,-6.628 1.455,-7.936 3.432,-13.187 8.311,-19.564 z"
     id="path10" /><path
     fill="#a84d26"
     d="m 37.765991,477.93298 c 1.97,-0.084 3.468,-0.355 4.861,0.757 0.564,3.546 -0.425,7.48 -0.308,11.063 0.316,9.717 2.692,18.922 4.563,28.364 0.138,0.692 -0.87,1.258 -1.368,1.642 -3.192,0.396 -5.165,0.822 -6.56,-2.746 -4.493,-11.486 -4.876,-27.665 -1.188,-39.08 z"
     id="path11" /><path
     fill="#f9c02b"
     d="m 237.83199,11.234981 c 1.632,-0.481 6.386,-1.2540007 8.281,-1.6180005 -7.185,11.7230005 -15.737,24.0380005 -17.239,38.0570005 -0.964,8.996 3.16,12.545 11.433,13.885 -6.56,12.077 -5.473,22.096 -4.117,35.343 -2.457,-2.725 -11.273,-13.536 -12.896,-14.747 -8.502,1.435 -7.705,46.155999 -7.477,54.238999 -1.81,-2.608 -3.093,-6.208 -4.219,-8.957 -7.157,-17.484 -9.619,-36.189999 -4.014,-54.484999 0.654,-2.137 0.967,-6.868 -0.601,-8.256 -7.539,-6.67 -23.109,11.88 -26.911,16.524 9.017,-24.258 22.922,-51.233 44.129,-66.962 2.897,-0.872 5.318,-1.307 8.27,-1.863 1.142,-0.353 4.067,-0.889 5.361,-1.16 z"
     id="path12" /><path
     fill="white"
     d="m 232.47099,12.394981 c 1.142,-0.353 4.067,-0.889 5.361,-1.16 -13.772,21.353 -20.74,35.751 -15.728,61.216 -4.105,-6.986 -8.096,-14.037 -11.972,-21.152 -4.283,0.196 -7.928,0.563 -12.19,1.039 11.932,-16.209 19.828,-26.467 34.529,-39.943 z"
     id="path13"
     style="fill:#fafad2;fill-opacity:1" /><path
     fill="#cc7c39"
     d="m 109.83299,100.22798 c 8.989,-4.001999 14.908,-3.231999 24.396,-0.782999 1.767,0.456003 5.083,1.628999 6.676,1.868999 l 0.749,0.322 c 18.5,10.971 16.128,15.243 18.603,34.579 -3.275,0.399 -15.545,1.169 -17.254,2.045 -0.633,-2.553 -0.2,-9.641 -2.411,-12.171 -2.232,1.22 -5.412,9.261 -6.568,11.872 -18.11,0.231 -27.441,-0.184 -45.148999,-4.647 3.882,-11.85 9.488998,-26.867 20.957999,-33.086 z"
     id="path14" /><path
     fill="#a84d26"
     d="m 140.90499,101.31398 0.749,0.322 c -3.46,11.068 -9.562,25.931 -9.002,37.475 -4.462,-12.305 -1.717,-28.99 8.253,-37.797 z"
     id="path15" /><path
     fill="#ed121a"
     d="m 246.11299,9.6169805 7.024,-0.734 c -5.189,7.2460005 -26.419,36.2270005 -16.656,46.5270005 2.515,2.654 9.119,-1.565 11.469,1.55 -0.081,1.892 -1.46,3.776 -2.526,5.309 -8.47,12.177 -4.529,27.416 -3.333,41.013999 0.092,1.047 -0.221,1.874 -0.792,2.763 -4.24,0.863 -14.548,-12.130999 -17.726,-15.698999 -2.108,13.405999 -3.077,26.966999 -2.899,40.537999 0.033,5.082 0.609,10.122 0.615,15.192 0.003,2.167 -1.501,3.225 -3.53,2.944 -3.146,-2.372 -6.323,-9.814 -8.086,-13.472 -11.423,-23.694 -12.559,-42.590999 -5.88,-67.564999 -14.723,4.511 -20.943,19.348 -30.683,29.693 -0.872,0.926 -1.583,0.771 -2.648,0.5 -0.715,-1.235 -1.199,-1.944 -0.704,-3.62 8.098,-26.719 21.136,-51.682 38.436,-73.595 0.855,-0.574 2.638,-2.441 3.462,-3.253 3.091,-1.566 9.057,-4.054 12.545,-3.451 -21.207,15.729 -35.112,42.704 -44.129,66.962 3.802,-4.644 19.372,-23.194 26.911,-16.524 1.568,1.388 1.255,6.119 0.601,8.256 -5.605,18.295 -3.143,37.000999 4.014,54.484999 1.126,2.749 2.409,6.349 4.219,8.957 -0.228,-8.083 -1.025,-52.803999 7.477,-54.238999 1.623,1.211 10.439,12.022 12.896,14.747 -1.356,-13.247 -2.443,-23.266 4.117,-35.343 -8.273,-1.34 -12.397,-4.889 -11.433,-13.885 1.502,-14.019 10.054,-26.334 17.239,-38.0570005 z"
     id="path16" /><path
     fill="#c17036"
     d="m 419.36699,275.70198 0.275,0.162 0.487,-0.023 c 4.915,-0.209 7.277,0.159 12.045,1.416 3.05,1.236 5.538,2.25 8.366,3.963 0.375,0.227 3.899,2.469 3.968,2.499 3.346,7.758 13.092,29.915 14.468,37.798 -4.224,2.38 -6.579,2.256 -11.387,1.689 -0.813,-0.532 -11.092,-2.715 -12.58,-3.057 -4.825,-0.355 -12.788,0.288 -17.846,0.552 -8.475,-4.573 -12.423,-19.331 -12.986,-28.421 -0.692,-11.154 4.414,-16.07 15.19,-16.578 z"
     id="path17" /><path
     fill="#a84d26"
     d="m 419.64199,275.86398 0.487,-0.023 c 5.154,9.308 11.65,30.649 13.991,40.975 -6.29,-10.751 -16.923,-27.779 -14.478,-40.952 z"
     id="path18" /><path
     fill="#cc7c39"
     d="m 274.48599,87.117981 c 6.177,-20.554 22.572,-28.305 43.012,-27.02 l 3.039,0.159 c 6.696,0.151 8.903,2.737 13.5,3.489 l 1.374,0.872 c 0.096,0.279 0.1,0.355 0.271,0.557 5.626,6.635 2.301,14.208 2.906,22.26 0.334,4.435 1.202,6.502 2.821,10.751 -22.291,-0.399 -45.816,-3.871 -66.923,-11.068 z"
     id="path19" /><path
     fill="#a84d26"
     d="m 317.49799,60.097981 3.039,0.159 c 9.412,9.528 2.913,24.676 -3.462,34.092 -0.934,-8.873 -4.587,-28.045 0.423,-34.251 z"
     id="path20" /><path
     fill="#f9c02b"
     d="m 61.667991,308.40298 c 3.964,5.231 7.278,9.354 6.347,16.376 -0.987,7.456 -7.688,15.572 -2.462,22.645 2.894,3.917 8.996,7.643 13.868,8.269 2.367,0.304 5.24,0.156 7.624,-0.034 -3.547,6.614 -9.434,13.16 -16.827,15.31 -13.674,3.976 -19.954,-10.829 -32.5,2.829 -4.374,4.762 -7.389,11.16 -11.248,15.711 -2.303,2.298 -3.861,3.123 -6.943,4.324 1.416,-4.174 2.875,-7.972 4.491,-12.074 0.275,-1.518 1.429,-3.988 2.06,-5.494 4.828,-13.953 16.244,-29.714 23.567,-43.404 4.801,-8.697 7.877,-15.515 12.023,-24.458 z"
     id="path21" /><path
     fill="white"
     d="m 49.644991,332.86098 c 6.545,6.864 8.029,13.207 9.374,22.352 -15.495,2.208 -17.88,8.539 -29.277,18.309 -0.928,0.796 -2.599,2.424 -3.664,2.743 4.828,-13.953 16.244,-29.714 23.567,-43.404 z"
     id="path22"
     style="fill:#fafad2;fill-opacity:1" /><path
     fill="#ed121a"
     d="m 134.02399,137.96098 c 1.156,-2.611 4.336,-10.652 6.568,-11.872 2.211,2.53 1.778,9.618 2.411,12.171 1.425,13.011 4.813,26.326 11.362,37.745 1.93,-6.007 5.965,-26.085 8.432,-29.227 3.951,-0.108 8.814,21.461 9.98,25.305 3.075,9.914 6.838,19.601 11.264,28.99 5.905,12.219 12.989,23.833 21.152,34.674 5.11,6.791 11.852,13.893 15.526,21.332 -28.045,-18.255 -50.011,-65.998 -56.941,-97.909 -1.33,5.467 -4.142,19.34 -7.62,22.888 -0.873,0.358 -1.959,0.938 -2.902,0.236 -5.233,-3.902 -10.198,-19.375 -11.677,-24.928 -1.567,-5.854 -2.548,-11.849 -2.93,-17.897 -4.095,10.807 -7.329,20.804 -8.403,32.418 -0.363,3.923 1.015,17.466 -3.126,18.351 -7.663,1.636 -17.701,-9.179 -22.431,-14.431 1.251,11.791 1.952,20.031 5.292,31.594 l -4.246,1.979 c -2.334,-6.787 -9.796999,-40.381 -5.163,-45.264 2.175,1.026 8.989,10.188 12.296,12.993 5.227,4.434 6.096,5.332 12.339,8.476 -0.15,-21.127 0.891,-27.808 8.817,-47.624 z"
     id="path24" /><path
     fill="#cc7c39"
     d="m 435.00899,320.14898 c 1.488,0.342 11.767,2.525 12.58,3.057 4.808,0.567 7.163,0.691 11.387,-1.689 5.534,14.942 12.11,28.95 17.511,44.19 -3.488,7.098 -5.555,11.406 -6.804,19.374 -0.609,8.036 -0.248,18.838 -8.929,22.129 -4.278,-36.46 -9.833,-54.744 -25.745,-87.061 z"
     id="path25" /><path
     fill="#e59e42"
     d="m 447.58899,323.20598 c 4.808,0.567 7.163,0.691 11.387,-1.689 5.534,14.942 12.11,28.95 17.511,44.19 -3.488,7.098 -5.555,11.406 -6.804,19.374 -1.481,-2.145 -3.41,-13.05 -4.348,-16.313 -4.605,-16.009 -9.928,-30.543 -18.31,-44.947 z"
     id="path26" /><path
     fill="#cc7c39"
     d="m 419.23899,519.48798 c 8.988,2.64 14.631,5.614 22.494,10.628 l 0.304,0.42 c -2.048,1.161 -20.07,34.196 -20.35,35.76 l -0.315,0.007 c -6.923,-5.119 -24.604,-13.022 -33.368,-18.512 5.314,-10.154 20.664,-23.779 31.235,-28.303 z"
     id="path27" /><path
     fill="#a84d26"
     d="m 421.18199,527.41698 c -0.045,1.653 -13.143,17.446 -14.756,19.93 -1.014,1.56 -1.935,1.558 -3.601,1.677 -0.583,-1.221 -1.169,-1.863 -0.624,-3.194 3.216,-7.855 11.953,-14.706 18.981,-18.413 z"
     id="path28" /><path
     fill="#e59e42"
     d="m 442.84099,162.55498 c 3.631,3.14 6.9,5.725 10.93,8.369 0.117,12.022 -0.005,25.948 -2.537,37.727 -6.351,29.553 -13.517,44.547 -6.726,75.068 -0.069,-0.03 -3.593,-2.272 -3.968,-2.499 -2.828,-1.713 -5.316,-2.727 -8.366,-3.963 -1.319,-26.925 8.001,-53.052 10.051,-81.021 0.459,-6.909 0.624,-13.834 0.494,-20.757 -0.062,-2.53 -0.782,-11.012 0.122,-12.924 z"
     id="path30" /><path
     fill="#cc7c39"
     d="m 435.47599,152.95198 c 2.54,3.573 4.55,6.244 7.365,9.603 -0.904,1.912 -0.184,10.394 -0.122,12.924 0.13,6.923 -0.035,13.848 -0.494,20.757 -2.05,27.969 -11.37,54.096 -10.051,81.021 -4.768,-1.257 -7.13,-1.625 -12.045,-1.416 l -0.487,0.023 -0.275,-0.162 c -1.302,-17.525 9.758,-47.566 12.62,-65.901 3.17,-20.301 3.095,-36.561 3.489,-56.849 z"
     id="path31" /><path
     fill="#cc7c39"
     d="m 100.85499,250.52998 c 10.056,-5.154 17.786,-3.906 28.034,-3.443 l 0.843,-1.896 c -1.039,12.475 0.39,17.216 1.814,28.743 -2.65,1.018 -5.187,2.201 -7.843,3.249 -6.857,2.707 -14.201,3.457 -21.213,5.278 -5.923999,-4.221 -6.042999,-23.04 -5.180999,-30.07 z"
     id="path32" /><path
     fill="#a84d26"
     d="m 100.85499,250.52998 c -0.143,-0.466 1.626,31.977 1.635,31.931 -5.923999,-4.221 -6.042999,-23.04 -5.180999,-30.07 z"
     id="path33" /><path
     fill="#ed121a"
     d="m 63.896991,304.03898 c 1.44,1.178 2.892,2.309 4.17,3.662 4.3,6.939 6.379,10.871 4.767,19.547 -0.789,5.407 -5.82,11.973 -2.804,17.297 2.026,3.576 5.954,5.28 9.67,6.349 5.477,1.576 8.661,-2.081 13.168,-2.962 3.551,12.065 -12.604,25.767 -23.126,28.899 -10.158,3.024 -19.013,-8.272 -26.682,-0.614 -6.103,6.093 -8.913,13.977 -15.36,19.834 -3.477,2.171 -7.446,4.567 -11.407,5.664 0.648,-2.409 1.592,-6.057 3.234,-7.882 3.082,-1.201 4.64,-2.026 6.943,-4.324 3.859,-4.551 6.874,-10.949 11.248,-15.711 12.546,-13.658 18.826,1.147 32.5,-2.829 7.393,-2.15 13.28,-8.696 16.827,-15.31 -2.384,0.19 -5.257,0.338 -7.624,0.034 -4.872,-0.626 -10.974,-4.352 -13.868,-8.269 -5.226,-7.073 1.475,-15.189 2.462,-22.645 0.931,-7.022 -2.383,-11.145 -6.347,-16.376 0.649,-0.991 1.661,-3.213 2.229,-4.364 z"
     id="path34" /><path
     fill="#fafad2"
     d="m 159.86299,190.84698 c 5.276,8.893 12.3,20.199 16.633,29.305 2.087,4.384 16.041,25.632 16.167,28.128 -12.578,-11.109 -25.797,-21.469 -39.59,-31.026 -2.84,-3.297 -8.07,-6.65 -11.775,-9.221 -1.268,-6.088 -1.681,-8.848 -1.754,-15.265 4.757,3.732 9.471,7.661 14.968,10.226 2.105,-3.705 4.116,-8.063 5.351,-12.147 z"
     id="path35" /><path
     fill="#cc7c39"
     d="m 97.308991,252.39098 c -0.862,7.03 -0.743,25.849 5.180999,30.07 -4.205001,-0.041 -9.212999,0.032 -13.167999,-0.68 -8.216,-1.48 -9.222,-11.963 -5.118,-17.946 3.882,-5.661 7.555,-7.98 13.105,-11.444 z"
     id="path36" /><path
     fill="#7a0d0e"
     d="m 384.99199,351.57998 c 22.058,-0.298 33.654,21.256 35.162,40.907 0.829,10.808 -0.875,22.081 -3.507,32.555 -3.196,-17.087 -0.509,-22.034 -8.573,-40.54 -0.026,0.23 -0.054,0.459 -0.085,0.687 -5.015,37.408 -25.988,85.157 -50.655,113.865 -6.645,7.593 -14.051,14.486 -22.102,20.568 -29.868,22.763 -66.907,29.836 -103.681,24.729 -57.913,-8.043 -101.046,-53.622 -132.807001,-99.402 -2.973998,-4.286 -5.199998,-9.015 -8.429998,-13.176 l -0.396,-0.503 c -3.682,8.222 -4.577,12.327 -5.548,20.992 -0.357,6.64 0.463,14.075 1.406,20.655 -6.039,-11.527 -9.471,-24.085 -8.693,-37.158 1.362,-22.887 12.677,-41.612 37.667999,-40.097 -7.142,-7.193 -9.752,-11.918 -10.001,-22.36 5.749,14.644 18.237,19.897 30.361,28.003 3.17,2.12 3.547,3.903 7.812,6.622 -16.635,-0.913 -26.074,-2.339 -40.41,6.689 43.422,29.724 83.245,39.626 135.763,32.523 54.89,-7.423 124.35,-31.875 158.77,-76.931 -9.144,-14.01 -18.636,-14.367 -32.537,-6.948 0.756,-0.994 1.536,-1.969 2.34,-2.924 4.949,-5.808 10.698,-8.219 18.143,-8.756 z"
     id="path37" /><path
     fill="white"
     d="m 298.86199,483.47398 0.249,0.095 c 0.835,0.856 7.203,34.266 8.192,38.637 -14.044,5.994 -27.643,10.192 -42.902,11.976 l -0.505,-0.025 c -2.04,-1.913 -7.192,-36.497 -8.31,-42.573 14.959,-1.096 28.848,-4.239 43.276,-8.11 z"
     id="path38"
     style="fill:#fcfce7;fill-opacity:1" /><path
     fill="white"
     d="m 207.37999,491.29698 c 15.889,1.795 26.488,1.912 42.306,0.77 2.085,14.331 4.186,28.456 7.931,42.481 -12.957,1.388 -30.105,-0.762 -42.578,-4.258 -2.783,-11.56 -6.099,-27.316 -7.659,-38.993 z"
     id="path39"
     style="fill:#fcfce7;fill-opacity:1" /><path
     fill="white"
     d="m 291.84099,445.94598 0.558,0.271 c 1.048,2.358 5.546,28.65 6.161,32.329 -13.904,3.361 -25.551,5.811 -39.762,7.714 -1.75,0.213 -2.224,0.551 -3.709,-0.067 -1.14,-3.413 -3.247,-26.189 -3.608,-30.676 4.81,-1.131 10.729,-1.985 15.76,-3.067 8.283,-1.842 16.489,-4.012 24.6,-6.504 z"
     id="path40"
     style="fill:#fcfce7;fill-opacity:1" /><path
     fill="white"
     d="m 334.22099,428.83898 0.469,0.165 c 0.994,1.31 6.175,28.513 6.952,32.353 -11.018,5.721 -24.48,10.806 -36.114,15.084 l -0.725,0.006 c -1.93,-1.559 -5.832,-27.884 -6.799,-32.239 4.055,-1.935 10.935,-4.323 15.342,-6.105 7.044,-2.892 14.005,-5.981 20.875,-9.264 z"
     id="path41"
     style="fill:#fcfce7;fill-opacity:1" /><path
     fill="white"
     d="m 341.79999,466.81698 0.563,0.153 c 1.245,2.307 4.413,20.389 5.424,24.612 -12.241,12.303 -20.378,19.48 -35.405,28.158 -1.806,-11.796 -5.017,-26.052 -7.293,-37.971 13.85,-4.494 23.634,-8.584 36.711,-14.952 z"
     id="path42"
     style="fill:#fcfce7;fill-opacity:1" /><path
     fill="white"
     d="m 245.24699,456.10098 c 0.436,0.444 3.516,27.99 4.051,30.998 -13.986,1.107 -28.047,0.809 -41.973,-0.89 l -0.502,-0.103 c -1.257,-1.671 -4.323,-23.594 -4.911,-27.296 16.389,0.182 27.19,-0.298 43.335,-2.709 z"
     id="path43"
     style="fill:#fcfce7;fill-opacity:1" /><path
     fill="white"
     d="m 374.18999,403.42098 c 0.857,1.694 3.078,30.063 3.47,34.068 -4.256,3.412 -26.118,19.837 -30.298,19.941 l -0.593,-1.15 c -1.889,-9.638 -3.97,-20.829 -6.567,-30.236 12.655,-7.634 22.342,-13.382 33.988,-22.623 z"
     id="path44"
     style="fill:#fcfce7;fill-opacity:1" /><path
     fill="white"
     d="m 165.36999,482.13498 c 10.656,3.8 25.261,7.072 36.333,8.521 0.972,10.543 4.947,27.533 7.509,38.001 -13.368,-4.009 -27.44,-12.162 -38.702,-20.305 -1.269,-7.917 -2.902,-18.717 -5.14,-26.217 z"
     id="path45"
     style="fill:#fcfce7;fill-opacity:1" /><path
     fill="white"
     d="m 159.22599,451.86998 c 11.279,3.881 25.529,5.493 37.353,6.639 1.624,8.718 3.01,18.286 4.493,27.097 -14.65,-2.578 -22.819,-4.698 -37.074,-9.457 -1.027,-7.073 -3.317,-17.057 -4.772,-24.279 z"
     id="path46"
     style="fill:#fcfce7;fill-opacity:1" /><path
     fill="white"
     d="m 118.17899,434.28298 c 1.554,0.676 3.677,1.889 5.186,2.719 9.768,5.374 19.674,9.407 30.101,13.259 1.544,7.892 3.905,15.776 4.917,23.699 -11.509,-5.397 -25.951,-11.873 -35.774,-19.633 -1.649,-6.642 -3.127,-13.325 -4.43,-20.044 z"
     id="path47"
     style="fill:#fcfce7;fill-opacity:1" /><path
     fill="white"
     d="m 400.05799,379.36198 c 3.316,2.242 -13.47,50.32 -15.91,54.77 l -0.596,0.15 -0.135,-1.284 c -1.065,-11.729 -2.101,-21.873 -3.833,-33.519 7.074,-6.448 13.903,-13.158 20.474,-20.117 z"
     id="path48"
     style="fill:#fcfce7;fill-opacity:1" /><path
     fill="white"
     d="m 125.19699,462.14998 c 14.182,8.099 18.347,11.065 34.003,17.707 1.803,7.811 3.227,15.924 4.715,23.816 -8.381,-3.576 -30.131,-27.454 -36.7,-35.372 -0.866,-1.044 -1.693,-4.698 -2.018,-6.151 z"
     id="path49"
     style="fill:#fcfce7;fill-opacity:1" /><path
     fill="white"
     d="m 377.17899,443.85998 0.369,0.376 c 0.963,4.991 -6.765,15.529 -9.337,19.989 -1.726,2.993 -13.632,20.555 -15.754,21.357 l -0.401,-1.335 c -1.311,-6.986 -2.587,-13.979 -3.828,-20.978 11.33,-6.313 18.714,-11.343 28.951,-19.409 z"
     id="path50"
     style="fill:#fcfce7;fill-opacity:1" /><path
     fill="white"
     d="m 97.277991,419.75698 c 3.759999,2.301 11.391999,8.388 15.219999,11.257 0.817,3.79 3.779,16.31 3.982,19.502 l -1.884,-0.996 c -12.134,-9.17 -14.055,-10.225 -22.044999,-23.317 1.462,-2.136 3.176,-4.354 4.727,-6.446 z"
     id="path51"
     style="fill:#fcfce7;fill-opacity:1" /><path
     fill="white"
     d="m 109.17699,450.27098 c 2.42,1.018 7.26,4.876 8.962,6.897 l 0.246,0.296 c 1.526,1.804 1.45,2.838 1.674,5.202 -2.229,-1.53 -9.097,-10 -10.882,-12.395 z"
     id="path52"
     style="fill:#fcfce7;fill-opacity:1" /><path
     fill="#7a0d0e"
     d="m 330.44499,192.97798 c 5.505,-2.383 12.024,-7.19 16.361,-11.386 2.472,13.19 8.292,7.891 17.314,4.427 2.315,-0.889 4.653,-1.875 6.955,-2.791 -4.695,6.3 -9.958,12.523 -14.303,19.024 9.687,-3.784 16.993,-4.507 26.868,-1.069 l 4.523,1.465 c 12.996,6.876 22.734,16.455 27.148,30.857 0.66,2.15 1.193,4.338 1.594,6.551 -13.504,-18.672 -33.169,-35.033 -57.604,-26.088 4.031,20.125 6.711,39.932 1.971,60.263 -5.104,21.895 -19.491,38.596 -42.945,40.553 29.567,6.152 40.605,-10.472 51.428,-34.517 -4.121,15.84 -9.858,31.223 -25.088,39.393 -37.087,19.897 -62.217,-20.102 -68.742,-50.397 -6.494,4.843 -13.405,10.108 -20.263,14.387 -8.318,-16.403 -12.09,-34.25 -9.675,-52.638 3.062,17.911 3.474,26.427 11.723,43.723 6.661,-6.947 15.873,-13.116 23.631,-19.006 1.7,-4.305 7.552,-12.819 10.296,-16.758 10.249,-14.714 29.427,-38.821 32.624,-56.286 1.834,4.557 2.905,6.657 6.184,10.293 z"
     id="path53" /><path
     fill="#fafad2"
     d="m 330.44499,192.97798 c 5.505,-2.383 12.024,-7.19 16.361,-11.386 2.472,13.19 8.292,7.891 17.314,4.427 2.315,-0.889 4.653,-1.875 6.955,-2.791 -4.695,6.3 -9.958,12.523 -14.303,19.024 -19.271,10.383 -36.994,26.372 -55.216,38.678 -6.469,4.369 -13.444,11.043 -20.215,14.799 1.7,-4.305 7.552,-12.819 10.296,-16.758 10.249,-14.714 29.427,-38.821 32.624,-56.286 1.834,4.557 2.905,6.657 6.184,10.293 z"
     id="path54" /><path
     fill="white"
     d="m 352.26099,216.88398 c 1.709,1.918 3.026,14.015 3.383,17.074 2.903,23.984 1.834,57.712 -24.344,68.917 -23.384,10.009 -37.872,-6.784 -46.084,-26.231 -1.169,-3.285 -2.357,-7.691 -3.372,-11.119 7.122,-4.823 13.807,-10.155 20.892,-15.059 -0.152,6.468 0.226,8.647 1.815,15.012 3.173,12.704 15.306,19.019 21.314,3.808 3.82,-9.67 2.202,-24.163 -2.073,-33.873 9.179,-6.642 18.68,-12.826 28.469,-18.529 z"
     id="path55"
     style="fill:#fcfbe8;fill-opacity:1" /><path
     fill="#cc7c39"
     d="m 124.07199,382.83298 c -4.36,-1.265 -6.494,-5.579 -8.463,-9.363 -5.95,-11.439 9.503,-16.394 17.766,-18.008 10.811,-2.112 22.846,-2.095 33.273,1.761 5.683,2.102 9.421,8.507 11.477,13.845 3.354,8.722 8.358,20.895 -3.183,25.728 -7.509,3.145 -38.274,-0.713 -41.798,-7.568 -3.648,-1.929 -5.986,-3.74 -9.072,-6.395 z"
     id="path56" /><path
     fill="#7a0d0e"
     d="m 116.75699,366.56998 c 8.645,13.319 16.926,20.989 32.94,24.383 l 1.107,0.232 c -7.576,1.191 -10.683,0.355 -17.66,-1.957 -3.648,-1.929 -5.986,-3.74 -9.072,-6.395 -5.312,-6.326 -5.829,-8.06 -7.315,-16.263 z"
     id="path57" /><path
     fill="#7a0d0e"
     d="m 166.49799,364.72298 0.696,0.917 c 0.168,5.066 -3.91,13.735 -6.891,17.859 l -0.384,-0.13 c 0.455,-2.263 5.572,-16.557 6.579,-18.646 z"
     id="path58" /><path
     fill="#cc7c39"
     d="m 280.15199,359.56298 c 44.043,-4.8 55.837,29.137 15.75,34.648 -10.982,1.128 -24.741,0.609 -33.679,-5.751 -13.463,-9.578 -5.082,-23.083 8.027,-26.709 3.845,-1.063 5.871,-1.681 9.902,-2.188 z"
     id="path59" /><path
     id="path60"
     d="m 349.79761,105.91032 c -0.11579,-7.9e-4 -0.23399,0.007 -0.35156,0.0215 -1.779,1.635 -1.6549,3.97762 -1.8789,6.26562 -1.809,18.48 -4.66033,37.41797 -14.61133,53.54297 -1.27,-4.37 -6.73053,-21.89895 -10.64453,-23.00195 -1.03,0.903 -1.66249,3.52266 -1.89649,4.84765 -2.818,15.94901 -9.19294,30.35215 -16.33593,44.86915 -5.315,8.922 -9.42529,15.32421 -15.23829,23.69921 -7.315,10.538 -26.86665,31.58563 -30.34765,42.26563 55.03932,-50.25452 60.59534,-87.31254 65.625,-103.29102 1.457,3.976 4.68983,15.28994 7.17383,17.46094 2.077,-0.116 2.52353,-0.66844 4.01953,-2.27344 10.459,-11.23 16.47681,-40.32714 16.63281,-55.11914 7.781,18.654 9.24097,32.07121 7.79297,52.53321 -0.129,1.81 -0.66041,8.02182 -0.69141,10.29882 0.309,0.232 0.61969,0.46427 0.92969,0.69727 3.519,0.389 11.89536,-5.47567 14.94336,-7.88867 7.816,-6.186 12.94915,-13.27016 17.53516,-22.03516 1.721,20.466 0.54154,34.08286 -8.81446,52.38086 l 4.52344,1.46484 c 10.317,-15.90799 11.4145,-37.39503 8.9375,-55.70703 -0.397,-2.937 -0.81313,-6.6325 -3.20313,-8.4375 -2.977,0.673 -8.17473,13.45632 -11.42773,17.44532 -6.339,7.775 -9.58223,10.55634 -17.86523,15.90234 2.12,-17.571 0.27931,-39.45166 -7.17969,-55.72266 -1.30588,-2.84909 -4.03724,-10.19429 -7.62696,-10.21875 z"
     style="fill:#ed121a;fill-opacity:1"
     sodipodi:nodetypes="sccccccccccccccccccccccccs" /><path
     fill="#7a0d0e"
     d="m 186.52699,547.81898 c 3.707,0.687 15.444,5.726 21.734,7.217 30.437,7.049 62.12,6.687 92.388,-1.054 l -6.631,3.444 c -8.367,4.45 -17.426,7.455 -26.794,8.887 -27.82,4.484 -57.73,-1.936 -80.697,-18.494 z"
     id="path61" /><path
     fill="#cc7c39"
     d="m 408.98999,474.03198 c 16.489,0.079 21.691,14.908 4.986,19.025 -6.229,0.244 -14.579,-2.431 -15.782,-9.469 -0.348,-1.95 0.182,-3.955 1.449,-5.478 2.371,-2.885 5.897,-3.611 9.347,-4.078 z"
     id="path63" /><path
     fill="#cc7c39"
     d="m 200.62099,328.44998 c 1.733,-0.156 3.313,-0.28 5.101,-0.259 8.889,0.104 16.278,9.586 6.527,15.757 -1.627,1.03 -3.193,1.471 -5.083,2.054 -17.615,2.746 -24.371,-12.025 -6.545,-17.552 z"
     id="path64" /><path
     fill="#cc7c39"
     d="m 289.23799,21.445981 c 3.798,-0.172 7.482,-0.477 10.983,1.172 10.143,4.777 9.156,10.841 -1.053,13.891 -16.13,2.158 -27.635,-10.638 -9.93,-15.063 z"
     id="path65" /><path
     fill="#7a0d0e"
     d="m 210.54099,571.34598 c 2.811,-0.069 14.645,2.94 19.085,3.379 20.029,1.978 36.799,1.257 56.462,-1.729 -1.165,0.806 -2.861,1.599 -4.158,2.258 -0.797,0.373 -1.607,0.719 -2.428,1.038 -23.684,9.222 -46.101,5.074 -68.961,-4.946 z"
     id="path66" /><path
     fill="#7a0d0e"
     d="m 383.96499,338.58898 c 3.198,-0.232 6.412,-0.158 9.596,0.222 15.567,1.987 26.776,11.808 32.246,26.354 1.134,3.013 4.575,12.948 4.179,15.745 l -0.688,-0.597 c -9.62,-17.683 -13.706,-29.935 -35.259,-37.638 -1.101,-0.393 -11.842,-3.396 -11.935,-3.509 z"
     id="path67" /><path
     fill="#7a0d0e"
     d="m 88.618991,385.84098 0.225,0.18 c -0.05,0.971 -3,4.692 -3.844,5.799 -12.294,16.134 -17.32,33.029 -20.006,52.898 -1.601,-3.389 -1.664,-13.168 -1.171,-17.169 2.286,-18.524 11.091,-30.425 24.796,-41.708 z"
     id="path68" /><path
     fill="#7a0d0e"
     d="m 351.08599,376.78898 c 0.391,1.493 -0.95,4.148 -1.446,5.575 -3.591,10.337 -10.047,18.616 -19.191,24.781 -8.158,5.5 -19.695,11.337 -29.538,13.05 l -0.055,-0.034 c 3.612,-2.205 9.1,-4.457 13.344,-6.983 16.772,-9.987 25.578,-21.029 36.886,-36.389 z"
     id="path69" /><path
     fill="#a84d26"
     d="m 232.74899,585.61398 c 2.046,-0.078 2.715,0.494 3.717,2.238 -0.7,3.993 -1.898,7.833 -2.757,11.827 -0.961,4.471 -1.329,9.519 -2.657,13.811 -1.556,1.417 -1.444,1.04 -3.762,1.539 -3.567,-2.172 -4.196,-4.455 -3.653,-8.642 0.98,-7.552 3.107,-15.644 9.112,-20.773 z"
     id="path70" /><path
     fill="#7a0d0e"
     d="m 153.50299,418.24398 c 2.7,2.14 5.173,5.377 9.111,8.26 10.448,7.648 21.454,10.77 34.163,12.101 3.767,0.395 8.152,0.458 11.722,1.002 l -0.569,0.374 c -22.209,5.46 -43.848,0.44 -54.427,-21.737 z"
     id="path71" /><path
     fill="#7a0d0e"
     d="m 295.84299,183.91398 0.645,1.142 c -10.343,16.907 -22.138,32.883 -35.25,47.747 7.252,-21.624 20.651,-31.459 34.605,-48.889 z"
     id="path72" /><path
     fill="#cc7c39"
     d="m 391.32699,295.78798 c 2.955,0.167 4.255,0.566 6.463,2.794 2.182,2.207 3.35,5.221 3.224,8.322 -0.123,3.474 -1.293,4.454 -3.66,6.594 -9.54,0.393 -13.75,-10.952 -6.027,-17.71 z"
     id="path73" /><path
     fill="#7a0d0e"
     d="m 192.53899,191.40898 c 12.746,14.535 26.573,26.185 32.332,45.07 -13.533,-14.895 -21.566,-28.659 -33.173,-44.444 z"
     id="path74" /><path
     fill="#7a0d0e"
     d="m 340.54999,372.31998 c 0.179,0.799 -0.122,1.505 -0.503,2.229 -9.86,18.743 -24.523,30.073 -44.225,36.666 l -0.023,-0.177 c 0.971,-1.026 7.868,-5.218 9.47,-6.23 14.145,-8.935 24.424,-19.951 35.281,-32.488 z"
     id="path75" /><path
     fill="#7a0d0e"
     d="m 293.07099,173.90198 -0.009,0.679 c -7.618,12.332 -22.593,31.306 -33.577,40.39 -1.38,-6.855 27.707,-34.947 33.586,-41.069 z"
     id="path76" /><path
     fill="#7a0d0e"
     d="m 194.20699,181.18098 c 3.877,1.308 22.029,19.447 25.384,23.85 2.909,3.817 6.112,9.262 8.513,13.556 -7.287,-3.274 -27.352,-30.163 -33.897,-37.406 z"
     id="path77" /><path
     fill="#c17036"
     d="m 450.87099,445.20998 c 1.398,1.94 1.131,8.148 1.345,10.7 1.514,18.088 -4.178,32.553 -11.996,48.574 l -0.405,0.174 c 1.188,-4.598 3.433,-10.399 4.826,-15.435 4.252,-15.376 5.978,-28.185 6.23,-44.013 z"
     id="path78" /><path
     fill="#c17036"
     d="m 75.532991,527.48398 c 3.727,-0.327 13.07,-0.548 12.511,5.095 -1.105,1.785 -1.922,2.124 -3.678,3.18 -3.843,0.607 -12.801,-0.165 -12.065,-5.562 0.977,-1.585 1.624,-1.785 3.232,-2.713 z"
     id="path79" /><path
     fill="#793015"
     d="m 191.69799,192.03498 c -1.136,-1.444 -3.92,-4.451 -3.777,-5.875 l -0.565,-0.007 0.001,-0.433 0.181,0.059 -0.11,0.388 c 1.415,0.244 3.937,3.832 5.111,5.242 z"
     id="path80" /><path
     fill="#793015"
     d="m 295.84299,183.91398 c 0.839,-1.152 2.13,-3.3 3.331,-3.743 -0.502,1.908 -1.578,3.231 -2.686,4.885 z"
     id="path81" /><path
     fill="#f9c02b"
     d="m 294.81899,621.51998 c 3.174,13.33 10.059,24.386 21.309,8.87 8.076,-11.141 15.628,-23.817 22.667,-35.617 8.261,-13.911 16.647,-27.747 25.158,-41.506 -1.844,6.192 -3.388,12.5 -4.977,18.744 -10.869,42.724 8.022,29.301 28.438,9.614 -3.804,7.25 -7.923,14.662 -11.334,22.04 -5.492,11.879 -1.215,13.607 9.885,12.598 15.492,-1.409 28.219,-6.433 42.101,-12.94 -21.521,21.291 -34.067,32.625 -61.587,47.143 -17.147,8.251 -57.117,12.684 -76.725,14.647 -2.343,0.376 -7.307,0.659 -9.87,0.88 3.126,-17.187 8.109,-28.828 14.935,-44.473 z"
     id="path82" /><path
     fill="#fafad2"
     d="m 351.90499,604.44098 c -3.588,9.018 -9.673,28.799 8.034,28.522 3.259,-0.051 6.513,-1.787 9.324,-3.355 0.136,9.193 -0.713,11.868 -2.784,20.858 -17.147,8.251 -57.117,12.684 -76.725,14.647 -0.028,-10.527 2.724,-17.801 6.832,-27.238 1.314,2.142 2.938,4.426 4.937,5.97 2.877,2.24 6.539,3.218 10.149,2.71 12.142,-1.71 32.261,-31.806 40.233,-42.114 z"
     id="path83" /><path
     fill="#f9c02b"
     d="m 348.16499,17.096981 c 14.318,3.393 34.224,16.354 45.32,25.918 23.205,19.034 37.798,42.225 47.752,70.425999 2.587,7.332 5.778,17.331 7.13,24.998 2.499,9.098 3.476,17.06 4.663,26.386 -3.855,-3.393 -7.005,-6.179 -9.966,-10.562 -5.924,-8.77 -9.18,-17.782 -17.813,-24.602 -10.245,-8.094 -25.708,-10.828 -35.984,-18.328 -3.035,-2.216 5.864,-7.774 5.046,-13.773999 -0.649,-4.751 -2.3,-7.038 -5.734,-10.714 -10.117,-10.827 -23.808,-15.171 -37.193,-20.395 -4.32,-1.687 -9.968,-3.755 -13.38,-6.863 -0.007,-0.682 -0.227,-0.866 0.865,-1.182 8.513,-2.715 30.453,0.611 36.678,-6.16 8.799,-9.57 -22.537,-31.597 -27.384,-35.148 z"
     id="path84" /><path
     fill="#fafad2"
     d="m 393.48499,43.014981 c 23.205,19.034 37.798,42.225 47.752,70.425999 2.587,7.332 5.778,17.331 7.13,24.998 -2.811,-3.266 -5.355,-6.898 -8.417,-10.395 -8.713,-9.948 -19.703,-17.642 -32.033,-22.423 1.176,-1.681 2.239,-3.438 3.182,-5.26 1.518,-2.871999 3.045,-7.354999 1.655,-10.312999 -4.394,-9.355 -19.998,-18.452 -28.568,-22.82 7.403,-2.005 10.78,-2.134 18.098,-5.519 -2.81,-7.041 -6.358,-12.735 -8.799,-18.694 z"
     id="path85" /><path
     fill="#f9c02b"
     d="m 62.409991,543.50498 c 10.377,18.127 30.094,46.844 48.928999,56.544 0.435,-6.39 0.855,-14.803 2.156,-20.948 6.247,16.274 10.836,24.513 24.451,35.701 2.778,-7.874 4.606,-15.856 7.085,-23.789 5.851,18.584 16.614,37.532 27.483,53.633 3.781,5.6 8.316,10.882 12.296,16.291 -4.339,-0.697 -9.118,-1.323 -13.314,-2.522 -21.212,-3.791 -52.012,-11.963 -68.796,-25.151 -3.489001,-2.13 -8.089999,-4.952 -10.629999,-8.083 -12.372,-15.258 -20.984,-40.508 -25.45,-59.039 -1.823,-7.461 -3.229,-15.019 -4.21,-22.637 z"
     id="path86" /><path
     fill="#fafad2"
     d="m 102.69999,633.26398 c -3.303001,-9.585 -6.883999,-21.823 -9.069999,-31.818 3.232,5.677 16.315999,25.867 25.953999,20.532 1.396,-0.773 2.351,-3.573 2.973,-5.152 4.812,7.636 11.755,12.215 19.342,16.64 3.632,-2.819 5.024,-4.348 7.672,-8.117 6.039,11.088 14.662,22.544 21.925,33.066 -21.212,-3.791 -52.012,-11.963 -68.796,-25.151 z"
     id="path87" /><path
     fill="#e59e42"
     d="m 19.473881,521.85293 c 2.829,-0.084 35.44718,-1.34501 36.49818,-1.01401 0.64275,9.2945 1.64007,22.37468 2.57457,32.12004 2.109,13.773 5.28876,27.89434 18.25288,59.12801 -17.953,-20.443 -49.08063,-64.84604 -57.32563,-90.23404 z"
     id="path89"
     sodipodi:nodetypes="ccccc" /><path
     fill="#f9c02b"
     d="m 471.67499,434.94798 c -5.865,-2.446 -15.282,-4.315 -17.993,-10.756 -1.304,-3.098 -4.692,-11.393 -3.518,-14.487 2.717,-0.714 8.912,4.125 14.825,1.258 9.978,-4.838 8.719,-17.545 10.169,-26.771 0.781,-4.97 1.738,-9.148 3.58,-13.602 2.525,11.26 6.243,20.847 7.585,32.701 1.829,11.523 2.878,23.976 2.357,35.642 -0.236,5.267 -1.16,10.628 -1.465,16.044 0.266,4.085 -0.157,8.936 -0.527,12.995 -10.255,-7.535 -14.535,-20.705 -15.013,-33.024 z"
     id="path90" /><path
     fill="#fafad2"
     d="m 486.32299,403.29098 c 1.829,11.523 2.878,23.976 2.357,35.642 -0.236,5.267 -1.16,10.628 -1.465,16.044 -4.001,-5.074 -6.13,-18.631 -8.291,-25.172 -1.461,-4.423 -2.116,-6.017 -4.286,-10.347 7.988,-6.284 8.748,-6.916 11.685,-16.167 z"
     id="path91" /></svg>
