<svg xmlns="http://www.w3.org/2000/svg" xml:space="preserve" width="443.095" height="602.127" viewBox="0 0 443.096 602.126"><defs><linearGradient id="a" x1="112.823" x2="602.102" y1="426.521" y2="623.364" gradientTransform="matrix(.895 0 0 .895 -78.494 -162.072)" gradientUnits="userSpaceOnUse"><stop offset="0" stop-color="#A9131C"/><stop offset="1" stop-color="#F21C22"/></linearGradient></defs><path fill="url(#a)" d="M248.682.092c6.323-.188 12.651-.09 18.965.292 39.727 2.32 78.078 16.131 104.524 46.768 31.417 36.395 46.613 94.155 37.853 141.39-4.077 21.983-11.675 35.43-7.278 58.356 3.314 17.285 10.858 31.764 18.007 47.409 7.063 15.452 12.297 31.206 15.556 47.826 1.478 7.204 3.726 14.339 4.74 21.635 7.687 55.273-6.527 118.566-38.554 164.55-9.516 12.541-21.862 24.051-33.418 34.566-10.96 8.554-27.616 18.806-40.639 25.324-36.183 14.579-103.162 15.287-142.684 12.832-48.648-4.87-84.24-13.196-120.852-46.803-19.77-18.146-44.158-53.066-53.427-78.119-17.13-47.495-15.147-101.568 6.395-147.654 11.745-25.127 27.68-40.42 35.05-67.056 2.333-13.59-2.332-32.843-3.86-46.242-2.572-22.565-.931-43.457 4.004-65.702 7.338-33.084 22.133-63.036 44.848-88.281C135.73 19.15 193.737 2.408 248.682.093Z"/><path fill="#e59e42" d="M226.52 7.949c20.797-2.852 49.798-1.847 70.66 2.005 6.951 6.102 14.673 10.958 21.654 16.728 31.282 25.856 1.28 16.176-17.469 21.496-5.206 1.477-7.124 4.711-2.452 8.865l1.23.78c16.505 9.047 41.151 13.057 49.127 30.17-2.097 2.853-7.224 7.253-6.542 10.696 1.096 5.537 12.377 10.284 17.013 11.97 16.159 5.873 22.278 10.852 29.944 26.21 2.273 3.197 4.072 5.587 6.59 8.593 3.25 2.81 6.175 5.123 9.781 7.489.105 10.758-.004 23.22-2.27 33.76-5.683 26.445-12.096 39.863-6.019 67.174 2.995 6.943 11.716 26.77 12.947 33.824 4.952 13.37 10.837 25.906 15.67 39.543-3.121 6.352-4.971 10.207-6.089 17.337-.545 7.191-.222 16.857-7.99 19.802-9.233-.891-10.015-6.618-11.504-14.619-4.074 14.282-5.35 36.967 12.919 41.454l4.47.786c1.037 9.002 2.515 16.787 8.2 24.3 2.994 3.142 4.907 4.848 8.69 7.021-1.272 10.29-2.327 21.258-5.175 31.227-4.81 16.834-28.558 68.24-41.174 78.204-4.564 3.606-13.71 6.593-19.406 8.27-5.809 2.258-14.066 4.358-20.236 5.212-3.964.703-6.17.944-10.195 1.159 1.814-6.936 7.138-16.429 10.49-22.927 3.911-7.577 6.946-13.885 10.04-21.902-3.92 4.544-31.546 31.78-35.829 28.139-.462-4.455 8.016-45.462 9.777-51.532-7.687 8.439-14.403 18.419-20.76 27.89-5.033 7.496-34.515 57.055-37.83 58.436-.7.291-.889.054-1.564-.178-3.69-3.775-6.179-15.7-7.258-21.034-11.734 16.548-17.098 32.629-21.69 52.012-7.957.118-15.474.542-23.576.47a333.916 333.916 0 0 1-46.355-3.78c-14.256-13.62-31.296-43.327-38.46-62.003-2.243-5.845-3.961-12.57-5.316-18.676-4.675 13.03-5.642 16.95-8.748 30.46-11.21-12.228-15.149-24.17-20.903-39.395-3.997 10.19-4.886 14.628-5.492 25.566-2.746-3.16-6.614-6.765-9.603-9.984a184.991 184.991 0 0 1-15.307-19.063c-5.682-8.182-11.097-16.584-15.699-25.423-1.357-2.608-2.886-5.554-4.509-7.979l-.265-.39c-.1 1.212-.256 2.623-.297 3.819-.143-1.573-.217-2.196-.62-3.717-.941-.296-17.942.507-20.473.582-3.465.096-7.79.324-11.184.246a107.227 107.227 0 0 1-4.46-15.225c-6.967-25.568-6.294-66.963 1.577-92.343.58-2.156 1.424-5.42 2.894-7.053 1.267-3.735 2.572-7.134 4.018-10.805.247-1.358 1.28-3.568 1.844-4.916 4.32-12.486 14.536-26.59 21.089-38.84 4.296-7.782 7.048-13.883 10.759-21.886.58-.887 1.486-2.875 1.994-3.905.43-4.753 3.006-11.471 2.908-17.124-.223-12.94-2.777-26.096-4.18-38.996a187.047 187.047 0 0 1 17.365-102.282c25.388-53.982 61.613-78.22 116.13-97.82 2.765-1.402 8.104-3.628 11.225-3.088 2.592-.78 4.759-1.17 7.4-1.667 1.022-.316 3.64-.796 4.798-1.038 1.46-.43 5.714-1.123 7.41-1.448z"/><path fill="#7a0d0e" d="M98.416 185.592c16.065-5.078 25.266 1.984 38.561 8.817a383.203 383.203 0 0 1 35.427 27.764c8.086 8.142 15.593 13.569 24.303 22.85 4.47-8.886 7.333-22.372 9.107-32.074.804 15.203-1.105 26.242-6.575 40.392-3.73-3.132-8.207-6.697-11.764-9.926-.706 4.565-1.337 8.812-2.567 13.276-12.538 45.501-64.894 47.683-74.735-2.034 9.578 17.006 15.334 32.586 39.079 30.01-18.36-6.896-27.26-21.196-31.538-39.538-1.274-10.315-2.553-14.557-1.623-25.72.02-6.839 2.52-16.41 4.426-22.927-19.507-8.498-35.399 5.91-48.278 18.837 4.609-13.108 10.535-20.602 22.378-27.956z"/><path fill="#fcfbe8" d="M125.733 199.153c6.994 3.112 17.777 10.371 24.186 14.81-3.47 9.324-3.917 23.838 2.374 32.31 1.076 1.42 3.548 3.251 5.368 3.145 9.553-.562 8.886-16.622 8.61-22.672 4.174 2.792 11.863 9.525 15.97 12.965a340.64 340.64 0 0 1-2.452 9.5c-2.988 8.728-6.923 16.36-14.883 21.57-12.073 7.9-27.117 1.62-34.007-10.092-11.084-18.845-9.844-41.037-5.166-61.536z"/><path fill="#cc7c39" d="m413.72 391.226 4.47.786c1.037 9.002 2.515 16.787 8.2 24.3 2.994 3.142 4.907 4.848 8.69 7.021-1.272 10.29-2.327 21.258-5.175 31.227-4.81 16.834-28.558 68.24-41.174 78.204-4.564 3.606-13.71 6.593-19.406 8.27-5.809 2.258-14.066 4.358-20.236 5.212 2.523-3.496 5.633-6.876 8.175-10.384 6.776-9.347 14-19.156 19.8-29.107l.282-.006c.25-1.4 16.378-30.96 18.21-32l-.272-.375c2.066-3.39 4.774-10.06 6.211-13.808 9.009-23.498 11.308-44.615 12.225-69.34z"/><path fill="#e59e42" d="M426.39 416.311c2.994 3.143 4.907 4.85 8.69 7.022-1.272 10.29-2.943 18.792-5.792 31.843-4.81 16.834-27.941 67.623-40.557 77.588-4.564 3.606-13.71 6.593-19.406 8.27.66-1.574 8.587-10.417 10.378-12.647a390.51 390.51 0 0 0 10.65-14.18c22.712-31.7 29.371-60.486 36.038-97.896z"/><path fill="#c17036" d="M377.346 506.75c.25-1.4 16.378-30.962 18.21-32 2.188 2.164 2.707 2.935 4.402 5.544-1.883 11.851-8.072 21.525-16.228 30.086z"/><path fill="#cc7c39" d="M21.411 428.38c.577-.278 3.981-2.193 4.35-2.226 23.076-2.049 47.505 9.67 59.185 29.962.862 1.498.929 2.813.405 4.416-3.904 5.516-22.636 4.2-29.358 4.977-1.708.198-4.404-.05-5.956.603-.1 1.212-.256 2.623-.297 3.819-.143-1.573-.217-2.196-.62-3.717-.941-.296-17.942.507-20.473.582-3.465.096-7.79.324-11.184.246a107.227 107.227 0 0 1-4.46-15.225c.49-1.35.668-4.284.971-5.931 1.302-7.101 3.071-11.8 7.437-17.507z"/><path fill="#a84d26" d="M33.795 427.678c1.763-.076 3.103-.318 4.35.677.504 3.173-.38 6.694-.276 9.9.283 8.695 2.409 16.932 4.083 25.381.124.62-.778 1.126-1.224 1.47-2.856.354-4.622.735-5.87-2.458-4.02-10.278-4.363-24.756-1.063-34.97z"/><path fill="#f9c02b" d="M212.824 10.054c1.46-.43 5.714-1.123 7.41-1.448-6.43 10.49-14.082 21.51-15.426 34.055-.863 8.05 2.827 11.226 10.23 12.425-5.87 10.807-4.897 19.772-3.684 31.627-2.198-2.439-10.087-12.113-11.54-13.197-7.608 1.284-6.894 41.303-6.69 48.536-1.62-2.334-2.768-5.555-3.776-8.015-6.404-15.646-8.607-32.385-3.592-48.756.585-1.912.866-6.146-.538-7.388-6.746-5.969-20.679 10.63-24.08 14.787 8.068-21.708 20.51-45.846 39.488-59.921 2.592-.78 4.759-1.17 7.4-1.667 1.022-.316 3.64-.796 4.798-1.038z"/><path fill="#fafad2" d="M208.026 11.092c1.022-.316 3.64-.796 4.798-1.038-12.324 19.107-18.56 31.991-14.075 54.779a670.433 670.433 0 0 1-10.713-18.928c-3.832.175-7.094.504-10.908.93 10.677-14.505 17.743-23.684 30.898-35.743z"/><path fill="#cc7c39" d="M98.284 89.689c8.044-3.581 13.34-2.892 21.83-.7 1.582.407 4.55 1.457 5.975 1.672l.67.288c16.555 9.817 14.432 13.64 16.647 30.943-2.93.357-13.91 1.046-15.44 1.83-.566-2.285-.179-8.628-2.157-10.892-1.998 1.092-4.843 8.288-5.878 10.624-16.206.207-24.555-.165-40.401-4.158 3.473-10.604 8.49-24.042 18.754-29.607z"/><path fill="#a84d26" d="m126.089 90.66.67.289c-3.096 9.904-8.557 23.204-8.056 33.534-3.992-11.01-1.536-25.941 7.386-33.822z"/><path fill="#ed121a" d="m220.234 8.606 6.285-.657c-4.643 6.484-23.64 32.418-14.904 41.634 2.25 2.375 8.16-1.4 10.263 1.387-.073 1.694-1.307 3.38-2.26 4.751-7.58 10.897-4.053 24.533-2.983 36.702.082.936-.198 1.677-.709 2.472-3.794.772-13.018-10.855-15.862-14.048a215.348 215.348 0 0 0-2.594 36.275c.03 4.548.545 9.058.55 13.595.003 1.939-1.343 2.886-3.159 2.634-2.815-2.122-5.658-8.782-7.235-12.055-10.222-21.203-11.239-38.113-5.262-60.46-13.175 4.036-18.74 17.313-27.457 26.57-.78.829-1.416.69-2.37.447-.64-1.105-1.072-1.74-.63-3.239a199.81 199.81 0 0 1 34.395-65.856c.765-.514 2.36-2.185 3.098-2.911 2.766-1.402 8.105-3.628 11.226-3.088-18.977 14.075-31.42 38.213-39.489 59.92 3.402-4.155 17.335-20.755 24.081-14.786 1.404 1.242 1.124 5.476.538 7.388-5.015 16.371-2.812 33.11 3.592 48.756 1.008 2.46 2.156 5.681 3.776 8.015-.204-7.233-.918-47.252 6.69-48.536 1.453 1.084 9.342 10.758 11.54 13.197-1.213-11.855-2.186-20.82 3.684-31.627-7.403-1.2-11.093-4.375-10.23-12.425 1.344-12.545 8.996-23.565 15.426-34.055z"/><path fill="#c17036" d="m375.27 246.712.246.144.436-.02c4.398-.187 6.512.142 10.778 1.267 2.73 1.106 4.956 2.013 7.487 3.546.335.203 3.489 2.21 3.55 2.236 2.995 6.943 11.716 26.77 12.947 33.824-3.78 2.13-5.887 2.019-10.19 1.511-.727-.476-9.925-2.43-11.257-2.735-4.317-.318-11.443.258-15.97.494-7.583-4.092-11.116-17.299-11.62-25.433-.619-9.98 3.95-14.38 13.593-14.835z"/><path fill="#a84d26" d="m375.516 246.856.436-.02c4.612 8.33 10.425 27.426 12.52 36.666-5.629-9.62-15.144-24.858-12.956-36.646z"/><path fill="#cc7c39" d="M245.623 77.957c5.528-18.392 20.199-25.328 38.49-24.178l2.72.142c5.991.135 7.966 2.449 12.08 3.122l1.23.78c.085.25.089.318.242.499 5.034 5.937 2.059 12.714 2.6 19.919.299 3.969 1.076 5.818 2.524 9.62-19.947-.357-40.998-3.463-59.886-9.904z"/><path fill="#a84d26" d="m284.113 53.779 2.72.142c8.421 8.526 2.606 22.081-3.099 30.507-.836-7.94-4.105-25.096.379-30.65z"/><path fill="#f9c02b" d="M55.184 275.974c3.547 4.68 6.512 8.37 5.68 14.654-.884 6.672-6.88 13.935-2.204 20.264 2.59 3.505 8.05 6.84 12.41 7.4 2.118.271 4.689.139 6.822-.031-3.174 5.918-8.442 11.776-15.058 13.7-12.236 3.558-17.855-9.69-29.082 2.532-3.914 4.26-6.612 9.986-10.065 14.059-2.061 2.056-3.455 2.794-6.213 3.869 1.267-3.735 2.572-7.134 4.018-10.805.247-1.358 1.28-3.568 1.844-4.916 4.32-12.486 14.536-26.59 21.089-38.84 4.296-7.782 7.048-13.883 10.759-21.886z"/><path fill="#fafad2" d="M44.425 297.86c5.857 6.142 7.184 11.818 8.388 20.002-13.866 1.976-16 7.64-26.198 16.384-.83.712-2.326 2.169-3.28 2.454 4.321-12.486 14.537-26.59 21.09-38.84z"/><path fill="#ed121a" d="M119.931 123.454c1.035-2.336 3.88-9.532 5.878-10.624 1.978 2.264 1.59 8.607 2.157 10.892 1.275 11.643 4.307 23.557 10.167 33.776 1.727-5.376 5.338-23.342 7.546-26.154 3.535-.097 7.887 19.204 8.93 22.644a199.307 199.307 0 0 0 10.08 25.942 186.465 186.465 0 0 0 18.928 31.028c4.572 6.077 10.605 12.432 13.893 19.089-25.096-16.336-44.752-59.059-50.953-87.614-1.19 4.892-3.707 17.306-6.82 20.481-.78.32-1.752.84-2.596.211-4.683-3.491-9.126-17.337-10.45-22.306a81.9 81.9 0 0 1-2.621-16.015c-3.665 9.67-6.558 18.616-7.52 29.009-.324 3.51.909 15.63-2.797 16.421-6.857 1.464-15.84-8.214-20.072-12.913 1.12 10.55 1.747 17.924 4.735 28.271l-3.8 1.771c-2.088-6.073-8.766-36.135-4.62-40.504 1.947.918 8.045 9.117 11.004 11.627 4.677 3.967 5.455 4.771 11.041 7.584-.134-18.905.798-24.884 7.89-42.616z"/><path fill="#cc7c39" d="M389.267 286.485c1.332.306 10.53 2.26 11.257 2.735 4.303.508 6.41.619 10.19-1.511 4.952 13.37 10.837 25.906 15.67 39.543-3.121 6.352-4.971 10.207-6.089 17.337-.545 7.191-.222 16.857-7.99 19.802-3.828-32.626-8.799-48.987-23.038-77.906z"/><path fill="#e59e42" d="M400.524 289.22c4.303.508 6.41.619 10.19-1.511 4.952 13.37 10.837 25.906 15.67 39.543-3.121 6.352-4.971 10.207-6.089 17.337-1.325-1.92-3.051-11.678-3.89-14.598-4.121-14.325-8.885-27.33-16.385-40.22z"/><path fill="#cc7c39" d="M375.155 464.863c8.043 2.362 13.093 5.024 20.13 9.51l.271.376c-1.832 1.04-17.96 30.6-18.21 32l-.282.006c-6.195-4.58-22.017-11.653-29.86-16.565 4.756-9.087 18.492-21.279 27.951-25.327z"/><path fill="#a84d26" d="M376.894 471.958c-.04 1.48-11.76 15.612-13.204 17.835-.908 1.396-1.732 1.394-3.223 1.5-.521-1.092-1.046-1.667-.558-2.858 2.878-7.029 10.696-13.16 16.985-16.477z"/><path fill="#e59e42" d="M396.276 145.462c3.249 2.81 6.174 5.123 9.78 7.489.105 10.758-.004 23.22-2.27 33.76-5.683 26.445-12.096 39.863-6.019 67.174-.061-.026-3.215-2.033-3.55-2.236-2.531-1.533-4.757-2.44-7.487-3.546-1.18-24.094 7.16-47.474 8.994-72.502.411-6.182.559-12.379.443-18.574-.056-2.264-.7-9.854.109-11.565z"/><path fill="#cc7c39" d="M389.685 136.869c2.273 3.197 4.072 5.587 6.59 8.593-.808 1.711-.164 9.301-.108 11.565a218.345 218.345 0 0 1-.443 18.574c-1.834 25.028-10.174 48.408-8.994 72.502-4.266-1.125-6.38-1.454-10.778-1.267l-.436.02-.246-.144c-1.165-15.683 8.732-42.565 11.293-58.972 2.837-18.166 2.77-32.716 3.122-50.871zM90.25 224.186c8.999-4.612 15.916-3.495 25.086-3.08l.755-1.697c-.93 11.163.349 15.405 1.623 25.72-2.372.911-4.642 1.97-7.019 2.908-6.136 2.422-12.707 3.093-18.982 4.723-5.301-3.777-5.408-20.618-4.636-26.908z"/><path fill="#a84d26" d="M90.25 224.186c-.128-.417 1.455 28.615 1.463 28.574-5.301-3.777-5.408-20.618-4.636-26.908z"/><path fill="#ed121a" d="M57.178 272.069c1.289 1.054 2.588 2.066 3.732 3.277 3.848 6.21 5.708 9.728 4.265 17.491-.706 4.839-5.208 10.714-2.509 15.479 1.813 3.2 5.328 4.724 8.653 5.681 4.902 1.41 7.75-1.862 11.784-2.65 3.177 10.796-11.279 23.057-20.694 25.86-9.09 2.706-17.014-7.403-23.877-.55-5.461 5.453-7.976 12.508-13.745 17.749-3.111 1.942-6.663 4.086-10.207 5.068.58-2.156 1.424-5.42 2.894-7.053 2.758-1.075 4.152-1.813 6.213-3.87 3.453-4.072 6.15-9.797 10.065-14.058 11.227-12.222 16.846 1.026 29.082-2.532 6.616-1.924 11.884-7.782 15.058-13.7-2.133.17-4.704.302-6.822.03-4.36-.56-9.82-3.894-12.41-7.4-4.676-6.328 1.32-13.591 2.203-20.263.833-6.284-2.132-9.973-5.68-14.654.581-.887 1.487-2.875 1.995-3.905z"/><path fill="#fafad2" d="M143.053 170.78c4.721 7.957 11.007 18.074 14.884 26.223 1.868 3.923 14.354 22.936 14.467 25.17a383.203 383.203 0 0 0-35.427-27.764c-2.541-2.95-7.221-5.95-10.537-8.251-1.134-5.448-1.504-7.918-1.57-13.66 4.258 3.34 8.476 6.856 13.395 9.15 1.884-3.315 3.683-7.214 4.788-10.869z"/><path fill="#cc7c39" d="M87.077 225.852c-.772 6.29-.665 23.13 4.636 26.908-3.763-.037-8.244.028-11.783-.609-7.352-1.324-8.253-10.705-4.58-16.059 3.474-5.065 6.76-7.14 11.727-10.24z"/><path fill="#7a0d0e" d="M344.51 314.61c19.738-.266 30.115 19.022 31.464 36.606.742 9.672-.783 19.76-3.138 29.132-2.86-15.29-.455-19.717-7.672-36.277-.023.206-.048.41-.076.615-4.487 33.474-23.255 76.202-45.328 101.892a132.081 132.081 0 0 1-19.778 18.405c-26.727 20.37-59.872 26.699-92.779 22.129-51.823-7.198-90.42-47.984-118.842-88.95-2.661-3.835-4.653-8.067-7.544-11.79l-.354-.45c-3.295 7.357-4.096 11.03-4.965 18.784-.32 5.942.415 12.595 1.259 18.483-5.404-10.315-8.476-21.552-7.78-33.25 1.22-20.481 11.345-37.237 33.708-35.881-6.391-6.437-8.727-10.665-8.95-20.01 5.145 13.105 16.32 17.806 27.169 25.06 2.837 1.896 3.174 3.492 6.99 5.925-14.885-.817-23.332-2.093-36.16 5.986 38.856 26.598 74.491 35.459 121.487 29.103 49.118-6.643 111.274-28.524 142.075-68.842-8.182-12.537-16.676-12.856-29.116-6.217a67.658 67.658 0 0 1 2.094-2.617c4.429-5.197 9.573-7.355 16.236-7.835z"/><path fill="#fcfce7" d="m267.436 432.636.223.085c.747.766 6.446 30.663 7.33 34.574-12.567 5.364-24.736 9.12-38.39 10.717l-.452-.022c-1.825-1.712-6.436-32.66-7.436-38.097 13.386-.98 25.814-3.793 38.725-7.257zM185.574 439.636c14.218 1.607 23.702 1.711 37.857.69 1.866 12.824 3.746 25.463 7.097 38.014-11.594 1.242-26.94-.682-38.1-3.81-2.491-10.345-5.458-24.444-6.854-34.894zM261.154 399.054l.499.243c.938 2.11 4.963 25.637 5.513 28.93-12.442 3.007-22.864 5.2-35.58 6.902-1.567.19-1.991.493-3.32-.06-1.02-3.054-2.906-23.435-3.229-27.45 4.305-1.012 9.601-1.777 14.103-2.745a287.34 287.34 0 0 0 22.014-5.82zM299.077 383.746l.42.148c.89 1.172 5.526 25.514 6.22 28.95-9.859 5.12-21.905 9.67-32.316 13.499l-.648.005c-1.727-1.396-5.22-24.952-6.084-28.85 3.628-1.731 9.785-3.868 13.728-5.463a363.611 363.611 0 0 0 18.68-8.29zM305.86 417.73l.503.137c1.114 2.065 3.95 18.245 4.854 22.024-10.954 11.01-18.235 17.432-31.682 25.198-1.616-10.556-4.49-23.313-6.527-33.979 12.394-4.021 21.15-7.681 32.851-13.38zM219.459 408.141c.39.398 3.146 25.047 3.625 27.739-12.515.99-25.098.724-37.56-.797l-.449-.092c-1.125-1.495-3.868-21.113-4.394-24.426 14.665.163 24.33-.266 38.778-2.424zM334.843 361c.767 1.517 2.755 26.903 3.106 30.486-3.809 3.054-23.372 17.751-27.113 17.845l-.53-1.03c-1.69-8.624-3.553-18.638-5.877-27.056 11.325-6.831 19.993-11.975 30.414-20.244zM147.981 431.438c9.536 3.4 22.605 6.328 32.513 7.625.87 9.434 4.426 24.638 6.72 34.005-11.963-3.587-24.556-10.883-34.633-18.17-1.136-7.084-2.597-16.749-4.6-23.46zM142.483 404.355c10.093 3.473 22.845 4.916 33.425 5.941 1.454 7.801 2.694 16.363 4.021 24.248-13.11-2.307-20.42-4.204-33.176-8.463-.919-6.329-2.968-15.263-4.27-21.726zM105.752 388.618c1.39.604 3.29 1.69 4.641 2.433 8.74 4.809 17.605 8.417 26.936 11.864 1.381 7.063 3.494 14.118 4.4 21.207-10.299-4.83-23.222-10.624-32.013-17.568a354.665 354.665 0 0 1-3.964-17.936zM357.991 339.472c2.968 2.006-12.053 45.028-14.237 49.01l-.533.135-.12-1.15c-.954-10.495-1.88-19.572-3.43-29.994a342.855 342.855 0 0 0 18.32-18.001zM112.032 413.554c12.691 7.248 16.418 9.902 30.428 15.845 1.613 6.99 2.888 14.25 4.22 21.312-7.5-3.2-26.964-24.567-32.842-31.653-.775-.934-1.515-4.204-1.806-5.504zM337.518 397.187l.33.337c.862 4.466-6.053 13.896-8.355 17.887-1.544 2.678-12.198 18.394-14.097 19.111l-.36-1.194a1905.188 1905.188 0 0 1-3.425-18.772c10.139-5.65 16.747-10.15 25.907-17.369zM87.05 375.619c3.364 2.059 10.193 7.506 13.619 10.073.73 3.392 3.381 14.595 3.563 17.452l-1.686-.892c-10.858-8.205-12.577-9.15-19.727-20.865 1.308-1.911 2.842-3.896 4.23-5.768zM97.697 402.924c2.165.911 6.497 4.364 8.02 6.172l.22.265c1.365 1.614 1.297 2.54 1.498 4.655-1.995-1.37-8.14-8.948-9.738-11.092z"/><path fill="#7a0d0e" d="M295.698 172.686c4.926-2.132 10.76-6.434 14.64-10.189 2.213 11.803 7.421 7.062 15.494 3.962 2.072-.796 4.164-1.678 6.224-2.498-4.201 5.638-8.91 11.206-12.799 17.024 8.668-3.386 15.206-4.033 24.043-.957l4.047 1.311c11.63 6.153 20.344 14.725 24.294 27.613a50.911 50.911 0 0 1 1.426 5.862c-12.084-16.709-29.681-31.35-51.547-23.345 3.607 18.009 6.005 35.733 1.764 53.926-4.568 19.593-17.442 34.538-38.43 36.289 26.459 5.505 36.336-9.37 46.02-30.888-3.687 14.175-8.82 27.94-22.45 35.251-33.186 17.805-55.674-17.988-61.513-45.097-5.811 4.333-11.995 9.045-18.132 12.874-7.444-14.678-10.819-30.649-8.658-47.103 2.74 16.027 3.109 23.648 10.49 39.125 5.961-6.216 14.204-11.737 21.147-17.007 1.52-3.853 6.758-11.471 9.213-14.996 9.171-13.167 26.333-34.74 29.194-50.368 1.64 4.078 2.6 5.957 5.533 9.211z"/><path fill="#fafad2" d="M295.698 172.686c4.926-2.132 10.76-6.434 14.64-10.189 2.213 11.803 7.421 7.062 15.494 3.962 2.072-.796 4.164-1.678 6.224-2.498-4.201 5.638-8.91 11.206-12.799 17.024-17.245 9.291-33.104 23.599-49.41 34.61-5.789 3.91-12.03 9.883-18.09 13.244 1.522-3.853 6.759-11.471 9.214-14.996 9.171-13.167 26.333-34.74 29.194-50.368 1.64 4.078 2.6 5.957 5.533 9.211z"/><path fill="#fcfbe8" d="M315.22 194.078c1.53 1.717 2.708 12.542 3.028 15.279 2.597 21.462 1.64 51.643-21.785 61.67-20.925 8.957-33.89-6.07-41.238-23.473-1.046-2.94-2.109-6.882-3.017-9.95 6.373-4.315 12.355-9.087 18.695-13.475-.136 5.788.202 7.738 1.624 13.434 2.84 11.368 13.697 17.019 19.073 3.407 3.418-8.653 1.97-21.622-1.855-30.311a307.548 307.548 0 0 1 25.475-16.58z"/><path fill="#cc7c39" d="M111.026 342.578c-3.902-1.132-5.811-4.993-7.573-8.379-5.325-10.236 8.503-14.67 15.897-16.114 9.675-1.89 20.444-1.875 29.775 1.575 5.085 1.881 8.43 7.613 10.27 12.39 3.001 7.805 7.48 18.698-2.848 23.022-6.72 2.815-34.25-.638-37.403-6.772-3.265-1.726-5.357-3.347-8.118-5.722z"/><path fill="#7a0d0e" d="M104.48 328.025c7.736 11.918 15.146 18.782 29.476 21.819l.99.207c-6.779 1.066-9.559.318-15.802-1.75-3.265-1.727-5.357-3.348-8.118-5.723-4.754-5.661-5.216-7.213-6.546-14.553zM148.99 326.372l.623.82c.15 4.534-3.499 12.291-6.166 15.982l-.344-.117c.407-2.025 4.986-14.816 5.888-16.685z"/><path fill="#cc7c39" d="M250.694 321.754c39.411-4.295 49.965 26.074 14.094 31.005-9.828 1.01-22.14.545-30.138-5.146-12.047-8.571-4.548-20.656 7.183-23.9 3.44-.952 5.254-1.505 8.86-1.959z"/><path fill="#ed121a" d="M313.016 94.774c-.104-.001-.21.006-.315.019-1.592 1.463-1.48 3.56-1.681 5.607-1.619 16.536-4.17 33.483-13.075 47.912-1.136-3.91-6.023-19.596-9.525-20.583-.922.808-1.488 3.152-1.697 4.338-2.522 14.272-8.227 27.16-14.618 40.151-4.757 7.984-8.435 13.713-13.636 21.207-6.546 9.43-24.042 28.265-27.157 37.822 49.252-44.97 54.224-78.132 58.725-92.43 1.303 3.558 4.196 13.682 6.419 15.625 1.859-.104 2.258-.598 3.597-2.035 9.36-10.049 14.744-36.086 14.884-49.323 6.963 16.693 8.269 28.699 6.973 47.01-.115 1.62-.59 7.178-.618 9.215l.831.624c3.15.348 10.645-4.9 13.373-7.059 6.994-5.535 11.587-11.875 15.69-19.718 1.54 18.314.485 30.499-7.887 46.873l4.048 1.31c9.232-14.235 10.214-33.462 7.998-49.849-.356-2.628-.728-5.935-2.867-7.55-2.664.602-7.315 12.041-10.226 15.611-5.672 6.957-8.574 9.446-15.986 14.23 1.897-15.723.25-35.303-6.425-49.863-1.169-2.55-3.613-9.123-6.825-9.144z"/><path fill="#7a0d0e" d="M166.913 490.215c3.318.615 13.82 5.124 19.45 6.458a174.637 174.637 0 0 0 82.672-.943l-5.933 3.082a75.29 75.29 0 0 1-23.977 7.952c-24.895 4.013-51.66-1.732-72.212-16.549z"/><path fill="#cc7c39" d="M365.984 424.187c14.755.07 19.41 13.34 4.462 17.024-5.574.219-13.046-2.175-14.123-8.473a6.013 6.013 0 0 1 1.297-4.902c2.122-2.582 5.277-3.231 8.364-3.65zM179.525 293.913c1.551-.14 2.965-.25 4.565-.232 7.954.093 14.566 8.578 5.84 14.1-1.455.922-2.857 1.317-4.548 1.838-15.763 2.458-21.808-10.76-5.857-15.706zM258.824 19.19c3.399-.153 6.696-.426 9.828 1.05 9.077 4.274 8.194 9.7-.942 12.43-14.434 1.931-24.729-9.52-8.886-13.48z"/><path fill="#7a0d0e" d="M188.402 511.268c2.516-.062 13.105 2.631 17.079 3.024 17.922 1.77 32.93 1.125 50.524-1.547-1.042.72-2.56 1.43-3.72 2.02a35.21 35.21 0 0 1-2.173.93c-21.194 8.251-41.253 4.54-61.71-4.427zM343.59 302.986a44.994 44.994 0 0 1 8.588.199c13.93 1.778 23.96 10.566 28.855 23.582 1.015 2.697 4.094 11.587 3.74 14.09l-.616-.534c-8.609-15.824-12.265-26.788-31.552-33.68-.985-.352-10.597-3.04-10.68-3.14zM79.3 345.27l.202.16c-.045.87-2.685 4.199-3.44 5.19-11.001 14.437-15.499 29.556-17.902 47.335-1.433-3.032-1.49-11.783-1.048-15.363 2.046-16.577 9.925-27.226 22.189-37.323zM314.169 337.17c.35 1.335-.85 3.71-1.294 4.988-3.214 9.25-8.99 16.658-17.173 22.175-7.3 4.922-17.624 10.145-26.432 11.678l-.05-.03c3.233-1.974 8.144-3.989 11.941-6.25 15.009-8.936 22.889-18.817 33.008-32.562z"/><path fill="#a84d26" d="M208.275 524.036c1.831-.07 2.43.442 3.326 2.003-.626 3.573-1.698 7.009-2.467 10.583-.86 4-1.19 8.518-2.377 12.359-1.393 1.268-1.293.93-3.367 1.377-3.192-1.944-3.755-3.987-3.269-7.733.877-6.758 2.78-14 8.154-18.59z"/><path fill="#7a0d0e" d="M137.362 374.265c2.416 1.915 4.629 4.812 8.153 7.391 9.35 6.844 19.198 9.638 30.57 10.829 3.372.354 7.295.41 10.49.897l-.51.334c-19.873 4.886-39.236.394-48.703-19.451zM264.735 164.575l.577 1.022a305.903 305.903 0 0 1-31.544 42.726c6.49-19.35 18.48-28.15 30.967-43.748z"/><path fill="#cc7c39" d="M350.178 264.685c2.645.15 3.808.507 5.784 2.5a10.014 10.014 0 0 1 2.885 7.448c-.11 3.108-1.157 3.985-3.275 5.9-8.537.352-12.304-9.8-5.394-15.848z"/><path fill="#7a0d0e" d="M172.293 171.282c11.406 13.007 23.78 23.432 28.933 40.33-12.11-13.328-19.299-25.645-29.685-39.77zM304.74 333.17c.16.715-.108 1.347-.45 1.995-8.823 16.772-21.944 26.91-39.574 32.81l-.02-.158c.868-.918 7.04-4.67 8.474-5.575 12.657-7.996 21.855-17.853 31.57-29.072zM262.254 155.616l-.008.607c-6.817 11.036-20.217 28.015-30.046 36.143-1.235-6.134 24.793-31.272 30.054-36.75zM173.786 162.13c3.47 1.17 19.712 17.402 22.715 21.342 2.603 3.415 5.469 8.288 7.618 12.13-6.521-2.93-24.476-26.991-30.333-33.472z"/><path fill="#c17036" d="M403.461 398.396c1.251 1.736 1.012 7.29 1.204 9.574 1.355 16.186-3.739 29.13-10.735 43.467l-.362.155c1.063-4.114 3.072-9.305 4.318-13.812 3.805-13.759 5.35-25.22 5.575-39.384zM67.59 472.018c3.336-.292 11.696-.49 11.196 4.56-.989 1.597-1.72 1.9-3.291 2.845-3.44.543-11.455-.147-10.797-4.977.875-1.418 1.454-1.597 2.893-2.428z"/><path fill="#793015" d="M171.54 171.842c-1.016-1.292-3.507-3.983-3.38-5.257l-.505-.006.001-.388.162.053-.098.347c1.266.219 3.523 3.43 4.573 4.691zM264.735 164.575c.75-1.03 1.906-2.953 2.98-3.35-.449 1.708-1.412 2.892-2.403 4.372z"/><path fill="#f9c02b" d="M263.818 556.166c2.84 11.929 9.002 21.822 19.069 7.938 7.227-9.97 13.984-21.313 20.283-31.872a2401.757 2401.757 0 0 1 22.513-37.142c-1.65 5.541-3.032 11.186-4.454 16.773-9.726 38.232 7.179 26.22 25.448 8.603-3.404 6.488-7.09 13.12-10.142 19.723-4.915 10.63-1.088 12.176 8.845 11.273 13.863-1.26 25.252-5.756 37.674-11.58-19.258 19.053-30.484 29.195-55.11 42.187-15.345 7.383-51.112 11.35-68.658 13.106-2.097.337-6.539.59-8.832.788 2.797-15.38 7.256-25.797 13.364-39.797z"/><path fill="#fafad2" d="M314.902 540.883c-3.211 8.07-8.656 25.77 7.189 25.523 2.916-.046 5.828-1.6 8.344-3.002.121 8.226-.639 10.62-2.492 18.665-15.344 7.383-51.11 11.35-68.657 13.106-.025-9.42 2.438-15.929 6.114-24.373 1.175 1.916 2.629 3.96 4.417 5.342a12.05 12.05 0 0 0 9.082 2.425c10.866-1.53 28.869-28.462 36.003-37.686z"/><path fill="#f9c02b" d="M311.555 15.3c12.812 3.035 30.625 14.633 40.555 23.192 20.765 17.032 33.823 37.785 42.73 63.02 2.315 6.561 5.17 15.51 6.38 22.37 2.237 8.141 3.111 15.266 4.173 23.611-3.45-3.036-6.268-5.529-8.918-9.451-5.3-7.848-8.214-15.912-15.94-22.015-9.167-7.243-23.004-9.69-32.2-16.4-2.716-1.984 5.247-6.957 4.515-12.327-.58-4.251-2.058-6.297-5.13-9.587-9.054-9.688-21.305-13.576-33.283-18.25-3.865-1.51-8.92-3.36-11.973-6.142-.006-.61-.203-.775.774-1.057 7.618-2.43 27.251.546 32.822-5.513 7.873-8.563-20.168-28.274-24.505-31.452z"/><path fill="#fafad2" d="M352.11 38.492c20.765 17.032 33.823 37.785 42.73 63.02 2.315 6.561 5.17 15.51 6.38 22.37-2.515-2.923-4.791-6.173-7.531-9.302a73.364 73.364 0 0 0-28.665-20.065 41.437 41.437 0 0 0 2.847-4.707c1.359-2.57 2.725-6.582 1.481-9.229-3.932-8.371-17.895-16.512-25.564-20.42 6.625-1.794 9.647-1.91 16.195-4.939-2.514-6.3-5.69-11.396-7.873-16.728z"/><path fill="#f9c02b" d="M55.848 486.355c9.285 16.22 26.93 41.918 43.784 50.598.389-5.718.765-13.246 1.929-18.745 5.59 14.562 9.696 21.935 21.88 31.947 2.486-7.046 4.121-14.189 6.34-21.288 5.236 16.63 14.867 33.586 24.593 47.994 3.383 5.01 7.441 9.737 11.003 14.578-3.883-.624-8.16-1.184-11.914-2.257-18.982-3.393-46.543-10.705-61.562-22.507-3.122-1.906-7.24-4.43-9.512-7.233-11.071-13.653-18.778-36.248-22.774-52.83a184.773 184.773 0 0 1-3.767-20.257Z"/><path fill="#fafad2" d="M91.901 566.675c-2.956-8.577-6.16-19.528-8.116-28.472 2.892 5.08 14.6 23.147 23.225 18.373 1.249-.692 2.103-3.197 2.66-4.61 4.306 6.833 10.519 10.93 17.308 14.89 3.25-2.522 4.496-3.89 6.865-7.263 5.404 9.922 13.12 20.173 19.62 29.589-18.982-3.393-46.543-10.705-61.562-22.507z"/><path fill="#e59e42" d="M17.426 466.98c2.532-.076 31.72-1.204 32.66-.908.576 8.317 1.468 20.022 2.304 28.743 1.888 12.324 4.733 24.96 16.334 52.91-16.065-18.293-43.92-58.027-51.298-80.746z"/><path fill="#f9c02b" d="M422.078 389.213c-5.249-2.19-13.675-3.862-16.101-9.625-1.167-2.773-4.199-10.195-3.148-12.964 2.431-.639 7.975 3.691 13.266 1.126 8.929-4.33 7.802-15.7 9.1-23.956.698-4.448 1.555-8.186 3.203-12.172 2.26 10.076 5.587 18.655 6.788 29.262 1.636 10.312 2.575 21.455 2.109 31.895-.212 4.713-1.038 9.51-1.311 14.357.238 3.655-.14 7.996-.472 11.628-9.177-6.743-13.006-18.528-13.434-29.551z"/><path fill="#fafad2" d="M435.186 360.884c1.636 10.312 2.575 21.455 2.109 31.895-.212 4.713-1.038 9.51-1.311 14.356-3.58-4.54-5.486-16.671-7.42-22.525-1.307-3.958-1.893-5.384-3.835-9.259 7.148-5.623 7.828-6.188 10.457-14.467z"/></svg>